<?xml version="1.0" encoding="UTF-8" standalone="no"?>
<!DOCTYPE svg PUBLIC "-//W3C//DTD SVG 1.1//EN"
 "http://www.w3.org/Graphics/SVG/1.1/DTD/svg11.dtd">
<!-- Generated by graphviz version 8.0.5 (20230430.1635)
 -->
<!-- Title: G Pages: 1 -->
<svg width="62pt" height="5221pt"
 viewBox="0.00 0.00 62.00 5221.25" xmlns="http://www.w3.org/2000/svg" xmlns:xlink="http://www.w3.org/1999/xlink">
<g id="graph0" class="graph" transform="scale(1 1) rotate(0) translate(4 5217.25)">
<title>G</title>
<polygon fill="white" stroke="none" points="-4,4 -4,-5217.25 58,-5217.25 58,4 -4,4"/>
<!-- 1 -->
<g id="node1" class="node">
<title>1</title>
<ellipse fill="none" stroke="black" cx="27" cy="-5195.25" rx="27" ry="18"/>
<text text-anchor="middle" x="27" y="-5189.82" font-family="Times New Roman,serif" font-size="14.00">1</text>
</g>
<!-- 2 -->
<g id="node2" class="node">
<title>2</title>
<ellipse fill="none" stroke="black" cx="27" cy="-5107.5" rx="27" ry="18"/>
<text text-anchor="middle" x="27" y="-5102.07" font-family="Times New Roman,serif" font-size="14.00">2</text>
</g>
<!-- 1&#45;&gt;2 -->
<g id="edge1" class="edge">
<title>1&#45;&gt;2</title>
<path fill="none" stroke="black" d="M27,-5176.9C27,-5165.39 27,-5150.03 27,-5136.78"/>
<polygon fill="black" stroke="black" points="30.5,-5136.83 27,-5126.83 23.5,-5136.83 30.5,-5136.83"/>
<text text-anchor="middle" x="35.62" y="-5145.95" font-family="Times New Roman,serif" font-size="14.00">5.0</text>
</g>
<!-- 3 -->
<g id="node3" class="node">
<title>3</title>
<ellipse fill="none" stroke="black" cx="27" cy="-5019.75" rx="27" ry="18"/>
<text text-anchor="middle" x="27" y="-5014.32" font-family="Times New Roman,serif" font-size="14.00">3</text>
</g>
<!-- 2&#45;&gt;3 -->
<g id="edge2" class="edge">
<title>2&#45;&gt;3</title>
<path fill="none" stroke="black" d="M27,-5089.15C27,-5077.64 27,-5062.28 27,-5049.03"/>
<polygon fill="black" stroke="black" points="30.5,-5049.08 27,-5039.08 23.5,-5049.08 30.5,-5049.08"/>
<text text-anchor="middle" x="35.62" y="-5058.2" font-family="Times New Roman,serif" font-size="14.00">8.0</text>
</g>
<!-- 4 -->
<g id="node4" class="node">
<title>4</title>
<ellipse fill="none" stroke="black" cx="27" cy="-4932" rx="27" ry="18"/>
<text text-anchor="middle" x="27" y="-4926.57" font-family="Times New Roman,serif" font-size="14.00">4</text>
</g>
<!-- 3&#45;&gt;4 -->
<g id="edge3" class="edge">
<title>3&#45;&gt;4</title>
<path fill="none" stroke="black" d="M27,-5001.4C27,-4989.89 27,-4974.53 27,-4961.28"/>
<polygon fill="black" stroke="black" points="30.5,-4961.33 27,-4951.33 23.5,-4961.33 30.5,-4961.33"/>
<text text-anchor="middle" x="35.62" y="-4970.45" font-family="Times New Roman,serif" font-size="14.00">2.0</text>
</g>
<!-- 5 -->
<g id="node5" class="node">
<title>5</title>
<ellipse fill="none" stroke="black" cx="27" cy="-4844.25" rx="27" ry="18"/>
<text text-anchor="middle" x="27" y="-4838.82" font-family="Times New Roman,serif" font-size="14.00">5</text>
</g>
<!-- 4&#45;&gt;5 -->
<g id="edge4" class="edge">
<title>4&#45;&gt;5</title>
<path fill="none" stroke="black" d="M27,-4913.65C27,-4902.14 27,-4886.78 27,-4873.53"/>
<polygon fill="black" stroke="black" points="30.5,-4873.58 27,-4863.58 23.5,-4873.58 30.5,-4873.58"/>
<text text-anchor="middle" x="35.62" y="-4882.7" font-family="Times New Roman,serif" font-size="14.00">7.0</text>
</g>
<!-- 6 -->
<g id="node6" class="node">
<title>6</title>
<ellipse fill="none" stroke="black" cx="27" cy="-4756.5" rx="27" ry="18"/>
<text text-anchor="middle" x="27" y="-4751.07" font-family="Times New Roman,serif" font-size="14.00">6</text>
</g>
<!-- 5&#45;&gt;6 -->
<g id="edge5" class="edge">
<title>5&#45;&gt;6</title>
<path fill="none" stroke="black" d="M27,-4825.9C27,-4814.39 27,-4799.03 27,-4785.78"/>
<polygon fill="black" stroke="black" points="30.5,-4785.83 27,-4775.83 23.5,-4785.83 30.5,-4785.83"/>
<text text-anchor="middle" x="35.62" y="-4794.95" font-family="Times New Roman,serif" font-size="14.00">1.0</text>
</g>
<!-- 7 -->
<g id="node7" class="node">
<title>7</title>
<ellipse fill="none" stroke="black" cx="27" cy="-4668.75" rx="27" ry="18"/>
<text text-anchor="middle" x="27" y="-4663.32" font-family="Times New Roman,serif" font-size="14.00">7</text>
</g>
<!-- 6&#45;&gt;7 -->
<g id="edge6" class="edge">
<title>6&#45;&gt;7</title>
<path fill="none" stroke="black" d="M27,-4738.15C27,-4726.64 27,-4711.28 27,-4698.03"/>
<polygon fill="black" stroke="black" points="30.5,-4698.08 27,-4688.08 23.5,-4698.08 30.5,-4698.08"/>
<text text-anchor="middle" x="35.62" y="-4707.2" font-family="Times New Roman,serif" font-size="14.00">4.0</text>
</g>
<!-- 8 -->
<g id="node8" class="node">
<title>8</title>
<ellipse fill="none" stroke="black" cx="27" cy="-4581" rx="27" ry="18"/>
<text text-anchor="middle" x="27" y="-4575.57" font-family="Times New Roman,serif" font-size="14.00">8</text>
</g>
<!-- 7&#45;&gt;8 -->
<g id="edge7" class="edge">
<title>7&#45;&gt;8</title>
<path fill="none" stroke="black" d="M27,-4650.4C27,-4638.89 27,-4623.53 27,-4610.28"/>
<polygon fill="black" stroke="black" points="30.5,-4610.33 27,-4600.33 23.5,-4610.33 30.5,-4610.33"/>
<text text-anchor="middle" x="35.62" y="-4619.45" font-family="Times New Roman,serif" font-size="14.00">9.0</text>
</g>
<!-- 9 -->
<g id="node9" class="node">
<title>9</title>
<ellipse fill="none" stroke="black" cx="27" cy="-4493.25" rx="27" ry="18"/>
<text text-anchor="middle" x="27" y="-4487.82" font-family="Times New Roman,serif" font-size="14.00">9</text>
</g>
<!-- 8&#45;&gt;9 -->
<g id="edge8" class="edge">
<title>8&#45;&gt;9</title>
<path fill="none" stroke="black" d="M27,-4562.65C27,-4551.14 27,-4535.78 27,-4522.53"/>
<polygon fill="black" stroke="black" points="30.5,-4522.58 27,-4512.58 23.5,-4522.58 30.5,-4522.58"/>
<text text-anchor="middle" x="35.62" y="-4531.7" font-family="Times New Roman,serif" font-size="14.00">3.0</text>
</g>
<!-- 10 -->
<g id="node10" class="node">
<title>10</title>
<ellipse fill="none" stroke="black" cx="27" cy="-4405.5" rx="27" ry="18"/>
<text text-anchor="middle" x="27" y="-4400.07" font-family="Times New Roman,serif" font-size="14.00">10</text>
</g>
<!-- 9&#45;&gt;10 -->
<g id="edge9" class="edge">
<title>9&#45;&gt;10</title>
<path fill="none" stroke="black" d="M27,-4474.9C27,-4463.39 27,-4448.03 27,-4434.78"/>
<polygon fill="black" stroke="black" points="30.5,-4434.83 27,-4424.83 23.5,-4434.83 30.5,-4434.83"/>
<text text-anchor="middle" x="35.62" y="-4443.95" font-family="Times New Roman,serif" font-size="14.00">6.0</text>
</g>
<!-- 11 -->
<g id="node11" class="node">
<title>11</title>
<ellipse fill="none" stroke="black" cx="27" cy="-4317.75" rx="27" ry="18"/>
<text text-anchor="middle" x="27" y="-4312.32" font-family="Times New Roman,serif" font-size="14.00">11</text>
</g>
<!-- 10&#45;&gt;11 -->
<g id="edge10" class="edge">
<title>10&#45;&gt;11</title>
<path fill="none" stroke="black" d="M27,-4387.15C27,-4375.64 27,-4360.28 27,-4347.03"/>
<polygon fill="black" stroke="black" points="30.5,-4347.08 27,-4337.08 23.5,-4347.08 30.5,-4347.08"/>
<text text-anchor="middle" x="35.62" y="-4356.2" font-family="Times New Roman,serif" font-size="14.00">8.0</text>
</g>
<!-- 12 -->
<g id="node12" class="node">
<title>12</title>
<ellipse fill="none" stroke="black" cx="27" cy="-4230" rx="27" ry="18"/>
<text text-anchor="middle" x="27" y="-4224.57" font-family="Times New Roman,serif" font-size="14.00">12</text>
</g>
<!-- 11&#45;&gt;12 -->
<g id="edge11" class="edge">
<title>11&#45;&gt;12</title>
<path fill="none" stroke="black" d="M27,-4299.4C27,-4287.89 27,-4272.53 27,-4259.28"/>
<polygon fill="black" stroke="black" points="30.5,-4259.33 27,-4249.33 23.5,-4259.33 30.5,-4259.33"/>
<text text-anchor="middle" x="35.62" y="-4268.45" font-family="Times New Roman,serif" font-size="14.00">1.0</text>
</g>
<!-- 13 -->
<g id="node13" class="node">
<title>13</title>
<ellipse fill="none" stroke="black" cx="27" cy="-4142.25" rx="27" ry="18"/>
<text text-anchor="middle" x="27" y="-4136.82" font-family="Times New Roman,serif" font-size="14.00">13</text>
</g>
<!-- 12&#45;&gt;13 -->
<g id="edge12" class="edge">
<title>12&#45;&gt;13</title>
<path fill="none" stroke="black" d="M27,-4211.65C27,-4200.14 27,-4184.78 27,-4171.53"/>
<polygon fill="black" stroke="black" points="30.5,-4171.58 27,-4161.58 23.5,-4171.58 30.5,-4171.58"/>
<text text-anchor="middle" x="35.62" y="-4180.7" font-family="Times New Roman,serif" font-size="14.00">5.0</text>
</g>
<!-- 14 -->
<g id="node14" class="node">
<title>14</title>
<ellipse fill="none" stroke="black" cx="27" cy="-4054.5" rx="27" ry="18"/>
<text text-anchor="middle" x="27" y="-4049.07" font-family="Times New Roman,serif" font-size="14.00">14</text>
</g>
<!-- 13&#45;&gt;14 -->
<g id="edge13" class="edge">
<title>13&#45;&gt;14</title>
<path fill="none" stroke="black" d="M27,-4123.9C27,-4112.39 27,-4097.03 27,-4083.78"/>
<polygon fill="black" stroke="black" points="30.5,-4083.83 27,-4073.83 23.5,-4083.83 30.5,-4083.83"/>
<text text-anchor="middle" x="35.62" y="-4092.95" font-family="Times New Roman,serif" font-size="14.00">3.0</text>
</g>
<!-- 15 -->
<g id="node15" class="node">
<title>15</title>
<ellipse fill="none" stroke="black" cx="27" cy="-3966.75" rx="27" ry="18"/>
<text text-anchor="middle" x="27" y="-3961.32" font-family="Times New Roman,serif" font-size="14.00">15</text>
</g>
<!-- 14&#45;&gt;15 -->
<g id="edge14" class="edge">
<title>14&#45;&gt;15</title>
<path fill="none" stroke="black" d="M27,-4036.15C27,-4024.64 27,-4009.28 27,-3996.03"/>
<polygon fill="black" stroke="black" points="30.5,-3996.08 27,-3986.08 23.5,-3996.08 30.5,-3996.08"/>
<text text-anchor="middle" x="35.62" y="-4005.2" font-family="Times New Roman,serif" font-size="14.00">9.0</text>
</g>
<!-- 16 -->
<g id="node16" class="node">
<title>16</title>
<ellipse fill="none" stroke="black" cx="27" cy="-3879" rx="27" ry="18"/>
<text text-anchor="middle" x="27" y="-3873.57" font-family="Times New Roman,serif" font-size="14.00">16</text>
</g>
<!-- 15&#45;&gt;16 -->
<g id="edge15" class="edge">
<title>15&#45;&gt;16</title>
<path fill="none" stroke="black" d="M27,-3948.4C27,-3936.89 27,-3921.53 27,-3908.28"/>
<polygon fill="black" stroke="black" points="30.5,-3908.33 27,-3898.33 23.5,-3908.33 30.5,-3908.33"/>
<text text-anchor="middle" x="35.62" y="-3917.45" font-family="Times New Roman,serif" font-size="14.00">4.0</text>
</g>
<!-- 17 -->
<g id="node17" class="node">
<title>17</title>
<ellipse fill="none" stroke="black" cx="27" cy="-3791.25" rx="27" ry="18"/>
<text text-anchor="middle" x="27" y="-3785.82" font-family="Times New Roman,serif" font-size="14.00">17</text>
</g>
<!-- 16&#45;&gt;17 -->
<g id="edge16" class="edge">
<title>16&#45;&gt;17</title>
<path fill="none" stroke="black" d="M27,-3860.65C27,-3849.14 27,-3833.78 27,-3820.53"/>
<polygon fill="black" stroke="black" points="30.5,-3820.58 27,-3810.58 23.5,-3820.58 30.5,-3820.58"/>
<text text-anchor="middle" x="35.62" y="-3829.7" font-family="Times New Roman,serif" font-size="14.00">7.0</text>
</g>
<!-- 18 -->
<g id="node18" class="node">
<title>18</title>
<ellipse fill="none" stroke="black" cx="27" cy="-3703.5" rx="27" ry="18"/>
<text text-anchor="middle" x="27" y="-3698.07" font-family="Times New Roman,serif" font-size="14.00">18</text>
</g>
<!-- 17&#45;&gt;18 -->
<g id="edge17" class="edge">
<title>17&#45;&gt;18</title>
<path fill="none" stroke="black" d="M27,-3772.9C27,-3761.39 27,-3746.03 27,-3732.78"/>
<polygon fill="black" stroke="black" points="30.5,-3732.83 27,-3722.83 23.5,-3732.83 30.5,-3732.83"/>
<text text-anchor="middle" x="35.62" y="-3741.95" font-family="Times New Roman,serif" font-size="14.00">2.0</text>
</g>
<!-- 19 -->
<g id="node19" class="node">
<title>19</title>
<ellipse fill="none" stroke="black" cx="27" cy="-3615.75" rx="27" ry="18"/>
<text text-anchor="middle" x="27" y="-3610.32" font-family="Times New Roman,serif" font-size="14.00">19</text>
</g>
<!-- 18&#45;&gt;19 -->
<g id="edge18" class="edge">
<title>18&#45;&gt;19</title>
<path fill="none" stroke="black" d="M27,-3685.15C27,-3673.64 27,-3658.28 27,-3645.03"/>
<polygon fill="black" stroke="black" points="30.5,-3645.08 27,-3635.08 23.5,-3645.08 30.5,-3645.08"/>
<text text-anchor="middle" x="35.62" y="-3654.2" font-family="Times New Roman,serif" font-size="14.00">6.0</text>
</g>
<!-- 20 -->
<g id="node20" class="node">
<title>20</title>
<ellipse fill="none" stroke="black" cx="27" cy="-3528" rx="27" ry="18"/>
<text text-anchor="middle" x="27" y="-3522.57" font-family="Times New Roman,serif" font-size="14.00">20</text>
</g>
<!-- 19&#45;&gt;20 -->
<g id="edge19" class="edge">
<title>19&#45;&gt;20</title>
<path fill="none" stroke="black" d="M27,-3597.4C27,-3585.89 27,-3570.53 27,-3557.28"/>
<polygon fill="black" stroke="black" points="30.5,-3557.33 27,-3547.33 23.5,-3557.33 30.5,-3557.33"/>
<text text-anchor="middle" x="35.62" y="-3566.45" font-family="Times New Roman,serif" font-size="14.00">8.0</text>
</g>
<!-- 21 -->
<g id="node21" class="node">
<title>21</title>
<ellipse fill="none" stroke="black" cx="27" cy="-3440.25" rx="27" ry="18"/>
<text text-anchor="middle" x="27" y="-3434.82" font-family="Times New Roman,serif" font-size="14.00">21</text>
</g>
<!-- 20&#45;&gt;21 -->
<g id="edge20" class="edge">
<title>20&#45;&gt;21</title>
<path fill="none" stroke="black" d="M27,-3509.65C27,-3498.14 27,-3482.78 27,-3469.53"/>
<polygon fill="black" stroke="black" points="30.5,-3469.58 27,-3459.58 23.5,-3469.58 30.5,-3469.58"/>
<text text-anchor="middle" x="35.62" y="-3478.7" font-family="Times New Roman,serif" font-size="14.00">3.0</text>
</g>
<!-- 22 -->
<g id="node22" class="node">
<title>22</title>
<ellipse fill="none" stroke="black" cx="27" cy="-3352.5" rx="27" ry="18"/>
<text text-anchor="middle" x="27" y="-3347.07" font-family="Times New Roman,serif" font-size="14.00">22</text>
</g>
<!-- 21&#45;&gt;22 -->
<g id="edge21" class="edge">
<title>21&#45;&gt;22</title>
<path fill="none" stroke="black" d="M27,-3421.9C27,-3410.39 27,-3395.03 27,-3381.78"/>
<polygon fill="black" stroke="black" points="30.5,-3381.83 27,-3371.83 23.5,-3381.83 30.5,-3381.83"/>
<text text-anchor="middle" x="35.62" y="-3390.95" font-family="Times New Roman,serif" font-size="14.00">1.0</text>
</g>
<!-- 23 -->
<g id="node23" class="node">
<title>23</title>
<ellipse fill="none" stroke="black" cx="27" cy="-3264.75" rx="27" ry="18"/>
<text text-anchor="middle" x="27" y="-3259.32" font-family="Times New Roman,serif" font-size="14.00">23</text>
</g>
<!-- 22&#45;&gt;23 -->
<g id="edge22" class="edge">
<title>22&#45;&gt;23</title>
<path fill="none" stroke="black" d="M27,-3334.15C27,-3322.64 27,-3307.28 27,-3294.03"/>
<polygon fill="black" stroke="black" points="30.5,-3294.08 27,-3284.08 23.5,-3294.08 30.5,-3294.08"/>
<text text-anchor="middle" x="35.62" y="-3303.2" font-family="Times New Roman,serif" font-size="14.00">4.0</text>
</g>
<!-- 24 -->
<g id="node24" class="node">
<title>24</title>
<ellipse fill="none" stroke="black" cx="27" cy="-3177" rx="27" ry="18"/>
<text text-anchor="middle" x="27" y="-3171.57" font-family="Times New Roman,serif" font-size="14.00">24</text>
</g>
<!-- 23&#45;&gt;24 -->
<g id="edge23" class="edge">
<title>23&#45;&gt;24</title>
<path fill="none" stroke="black" d="M27,-3246.4C27,-3234.89 27,-3219.53 27,-3206.28"/>
<polygon fill="black" stroke="black" points="30.5,-3206.33 27,-3196.33 23.5,-3206.33 30.5,-3206.33"/>
<text text-anchor="middle" x="35.62" y="-3215.45" font-family="Times New Roman,serif" font-size="14.00">9.0</text>
</g>
<!-- 25 -->
<g id="node25" class="node">
<title>25</title>
<ellipse fill="none" stroke="black" cx="27" cy="-3089.25" rx="27" ry="18"/>
<text text-anchor="middle" x="27" y="-3083.82" font-family="Times New Roman,serif" font-size="14.00">25</text>
</g>
<!-- 24&#45;&gt;25 -->
<g id="edge24" class="edge">
<title>24&#45;&gt;25</title>
<path fill="none" stroke="black" d="M27,-3158.65C27,-3147.14 27,-3131.78 27,-3118.53"/>
<polygon fill="black" stroke="black" points="30.5,-3118.58 27,-3108.58 23.5,-3118.58 30.5,-3118.58"/>
<text text-anchor="middle" x="35.62" y="-3127.7" font-family="Times New Roman,serif" font-size="14.00">5.0</text>
</g>
<!-- 26 -->
<g id="node26" class="node">
<title>26</title>
<ellipse fill="none" stroke="black" cx="27" cy="-3001.5" rx="27" ry="18"/>
<text text-anchor="middle" x="27" y="-2996.07" font-family="Times New Roman,serif" font-size="14.00">26</text>
</g>
<!-- 25&#45;&gt;26 -->
<g id="edge25" class="edge">
<title>25&#45;&gt;26</title>
<path fill="none" stroke="black" d="M27,-3070.9C27,-3059.39 27,-3044.03 27,-3030.78"/>
<polygon fill="black" stroke="black" points="30.5,-3030.83 27,-3020.83 23.5,-3030.83 30.5,-3030.83"/>
<text text-anchor="middle" x="35.62" y="-3039.95" font-family="Times New Roman,serif" font-size="14.00">7.0</text>
</g>
<!-- 27 -->
<g id="node27" class="node">
<title>27</title>
<ellipse fill="none" stroke="black" cx="27" cy="-2913.75" rx="27" ry="18"/>
<text text-anchor="middle" x="27" y="-2908.32" font-family="Times New Roman,serif" font-size="14.00">27</text>
</g>
<!-- 26&#45;&gt;27 -->
<g id="edge26" class="edge">
<title>26&#45;&gt;27</title>
<path fill="none" stroke="black" d="M27,-2983.15C27,-2971.64 27,-2956.28 27,-2943.03"/>
<polygon fill="black" stroke="black" points="30.5,-2943.08 27,-2933.08 23.5,-2943.08 30.5,-2943.08"/>
<text text-anchor="middle" x="35.62" y="-2952.2" font-family="Times New Roman,serif" font-size="14.00">6.0</text>
</g>
<!-- 28 -->
<g id="node28" class="node">
<title>28</title>
<ellipse fill="none" stroke="black" cx="27" cy="-2826" rx="27" ry="18"/>
<text text-anchor="middle" x="27" y="-2820.57" font-family="Times New Roman,serif" font-size="14.00">28</text>
</g>
<!-- 27&#45;&gt;28 -->
<g id="edge27" class="edge">
<title>27&#45;&gt;28</title>
<path fill="none" stroke="black" d="M27,-2895.4C27,-2883.89 27,-2868.53 27,-2855.28"/>
<polygon fill="black" stroke="black" points="30.5,-2855.33 27,-2845.33 23.5,-2855.33 30.5,-2855.33"/>
<text text-anchor="middle" x="35.62" y="-2864.45" font-family="Times New Roman,serif" font-size="14.00">2.0</text>
</g>
<!-- 29 -->
<g id="node29" class="node">
<title>29</title>
<ellipse fill="none" stroke="black" cx="27" cy="-2738.25" rx="27" ry="18"/>
<text text-anchor="middle" x="27" y="-2732.82" font-family="Times New Roman,serif" font-size="14.00">29</text>
</g>
<!-- 28&#45;&gt;29 -->
<g id="edge28" class="edge">
<title>28&#45;&gt;29</title>
<path fill="none" stroke="black" d="M27,-2807.65C27,-2796.14 27,-2780.78 27,-2767.53"/>
<polygon fill="black" stroke="black" points="30.5,-2767.58 27,-2757.58 23.5,-2767.58 30.5,-2767.58"/>
<text text-anchor="middle" x="35.62" y="-2776.7" font-family="Times New Roman,serif" font-size="14.00">8.0</text>
</g>
<!-- 30 -->
<g id="node30" class="node">
<title>30</title>
<ellipse fill="none" stroke="black" cx="27" cy="-2650.5" rx="27" ry="18"/>
<text text-anchor="middle" x="27" y="-2645.07" font-family="Times New Roman,serif" font-size="14.00">30</text>
</g>
<!-- 29&#45;&gt;30 -->
<g id="edge29" class="edge">
<title>29&#45;&gt;30</title>
<path fill="none" stroke="black" d="M27,-2719.9C27,-2708.39 27,-2693.03 27,-2679.78"/>
<polygon fill="black" stroke="black" points="30.5,-2679.83 27,-2669.83 23.5,-2679.83 30.5,-2679.83"/>
<text text-anchor="middle" x="35.62" y="-2688.95" font-family="Times New Roman,serif" font-size="14.00">1.0</text>
</g>
<!-- 31 -->
<g id="node31" class="node">
<title>31</title>
<ellipse fill="none" stroke="black" cx="27" cy="-2562.75" rx="27" ry="18"/>
<text text-anchor="middle" x="27" y="-2557.32" font-family="Times New Roman,serif" font-size="14.00">31</text>
</g>
<!-- 30&#45;&gt;31 -->
<g id="edge30" class="edge">
<title>30&#45;&gt;31</title>
<path fill="none" stroke="black" d="M27,-2632.15C27,-2620.64 27,-2605.28 27,-2592.03"/>
<polygon fill="black" stroke="black" points="30.5,-2592.08 27,-2582.08 23.5,-2592.08 30.5,-2592.08"/>
<text text-anchor="middle" x="35.62" y="-2601.2" font-family="Times New Roman,serif" font-size="14.00">9.0</text>
</g>
<!-- 32 -->
<g id="node32" class="node">
<title>32</title>
<ellipse fill="none" stroke="black" cx="27" cy="-2475" rx="27" ry="18"/>
<text text-anchor="middle" x="27" y="-2469.57" font-family="Times New Roman,serif" font-size="14.00">32</text>
</g>
<!-- 31&#45;&gt;32 -->
<g id="edge31" class="edge">
<title>31&#45;&gt;32</title>
<path fill="none" stroke="black" d="M27,-2544.4C27,-2532.89 27,-2517.53 27,-2504.28"/>
<polygon fill="black" stroke="black" points="30.5,-2504.33 27,-2494.33 23.5,-2504.33 30.5,-2504.33"/>
<text text-anchor="middle" x="35.62" y="-2513.45" font-family="Times New Roman,serif" font-size="14.00">3.0</text>
</g>
<!-- 33 -->
<g id="node33" class="node">
<title>33</title>
<ellipse fill="none" stroke="black" cx="27" cy="-2387.25" rx="27" ry="18"/>
<text text-anchor="middle" x="27" y="-2381.82" font-family="Times New Roman,serif" font-size="14.00">33</text>
</g>
<!-- 32&#45;&gt;33 -->
<g id="edge32" class="edge">
<title>32&#45;&gt;33</title>
<path fill="none" stroke="black" d="M27,-2456.65C27,-2445.14 27,-2429.78 27,-2416.53"/>
<polygon fill="black" stroke="black" points="30.5,-2416.58 27,-2406.58 23.5,-2416.58 30.5,-2416.58"/>
<text text-anchor="middle" x="35.62" y="-2425.7" font-family="Times New Roman,serif" font-size="14.00">6.0</text>
</g>
<!-- 34 -->
<g id="node34" class="node">
<title>34</title>
<ellipse fill="none" stroke="black" cx="27" cy="-2299.5" rx="27" ry="18"/>
<text text-anchor="middle" x="27" y="-2294.07" font-family="Times New Roman,serif" font-size="14.00">34</text>
</g>
<!-- 33&#45;&gt;34 -->
<g id="edge33" class="edge">
<title>33&#45;&gt;34</title>
<path fill="none" stroke="black" d="M27,-2368.9C27,-2357.39 27,-2342.03 27,-2328.78"/>
<polygon fill="black" stroke="black" points="30.5,-2328.83 27,-2318.83 23.5,-2328.83 30.5,-2328.83"/>
<text text-anchor="middle" x="35.62" y="-2337.95" font-family="Times New Roman,serif" font-size="14.00">7.0</text>
</g>
<!-- 35 -->
<g id="node35" class="node">
<title>35</title>
<ellipse fill="none" stroke="black" cx="27" cy="-2211.75" rx="27" ry="18"/>
<text text-anchor="middle" x="27" y="-2206.32" font-family="Times New Roman,serif" font-size="14.00">35</text>
</g>
<!-- 34&#45;&gt;35 -->
<g id="edge34" class="edge">
<title>34&#45;&gt;35</title>
<path fill="none" stroke="black" d="M27,-2281.15C27,-2269.64 27,-2254.28 27,-2241.03"/>
<polygon fill="black" stroke="black" points="30.5,-2241.08 27,-2231.08 23.5,-2241.08 30.5,-2241.08"/>
<text text-anchor="middle" x="35.62" y="-2250.2" font-family="Times New Roman,serif" font-size="14.00">4.0</text>
</g>
<!-- 36 -->
<g id="node36" class="node">
<title>36</title>
<ellipse fill="none" stroke="black" cx="27" cy="-2124" rx="27" ry="18"/>
<text text-anchor="middle" x="27" y="-2118.57" font-family="Times New Roman,serif" font-size="14.00">36</text>
</g>
<!-- 35&#45;&gt;36 -->
<g id="edge35" class="edge">
<title>35&#45;&gt;36</title>
<path fill="none" stroke="black" d="M27,-2193.4C27,-2181.89 27,-2166.53 27,-2153.28"/>
<polygon fill="black" stroke="black" points="30.5,-2153.33 27,-2143.33 23.5,-2153.33 30.5,-2153.33"/>
<text text-anchor="middle" x="35.62" y="-2162.45" font-family="Times New Roman,serif" font-size="14.00">1.0</text>
</g>
<!-- 37 -->
<g id="node37" class="node">
<title>37</title>
<ellipse fill="none" stroke="black" cx="27" cy="-2036.25" rx="27" ry="18"/>
<text text-anchor="middle" x="27" y="-2030.83" font-family="Times New Roman,serif" font-size="14.00">37</text>
</g>
<!-- 36&#45;&gt;37 -->
<g id="edge36" class="edge">
<title>36&#45;&gt;37</title>
<path fill="none" stroke="black" d="M27,-2105.65C27,-2094.14 27,-2078.78 27,-2065.53"/>
<polygon fill="black" stroke="black" points="30.5,-2065.58 27,-2055.58 23.5,-2065.58 30.5,-2065.58"/>
<text text-anchor="middle" x="35.62" y="-2074.7" font-family="Times New Roman,serif" font-size="14.00">8.0</text>
</g>
<!-- 38 -->
<g id="node38" class="node">
<title>38</title>
<ellipse fill="none" stroke="black" cx="27" cy="-1948.5" rx="27" ry="18"/>
<text text-anchor="middle" x="27" y="-1943.08" font-family="Times New Roman,serif" font-size="14.00">38</text>
</g>
<!-- 37&#45;&gt;38 -->
<g id="edge37" class="edge">
<title>37&#45;&gt;38</title>
<path fill="none" stroke="black" d="M27,-2017.9C27,-2006.39 27,-1991.03 27,-1977.78"/>
<polygon fill="black" stroke="black" points="30.5,-1977.83 27,-1967.83 23.5,-1977.83 30.5,-1977.83"/>
<text text-anchor="middle" x="35.62" y="-1986.95" font-family="Times New Roman,serif" font-size="14.00">2.0</text>
</g>
<!-- 39 -->
<g id="node39" class="node">
<title>39</title>
<ellipse fill="none" stroke="black" cx="27" cy="-1860.75" rx="27" ry="18"/>
<text text-anchor="middle" x="27" y="-1855.33" font-family="Times New Roman,serif" font-size="14.00">39</text>
</g>
<!-- 38&#45;&gt;39 -->
<g id="edge38" class="edge">
<title>38&#45;&gt;39</title>
<path fill="none" stroke="black" d="M27,-1930.15C27,-1918.64 27,-1903.28 27,-1890.03"/>
<polygon fill="black" stroke="black" points="30.5,-1890.08 27,-1880.08 23.5,-1890.08 30.5,-1890.08"/>
<text text-anchor="middle" x="35.62" y="-1899.2" font-family="Times New Roman,serif" font-size="14.00">5.0</text>
</g>
<!-- 40 -->
<g id="node40" class="node">
<title>40</title>
<ellipse fill="none" stroke="black" cx="27" cy="-1773" rx="27" ry="18"/>
<text text-anchor="middle" x="27" y="-1767.58" font-family="Times New Roman,serif" font-size="14.00">40</text>
</g>
<!-- 39&#45;&gt;40 -->
<g id="edge39" class="edge">
<title>39&#45;&gt;40</title>
<path fill="none" stroke="black" d="M27,-1842.4C27,-1830.89 27,-1815.53 27,-1802.28"/>
<polygon fill="black" stroke="black" points="30.5,-1802.33 27,-1792.33 23.5,-1802.33 30.5,-1802.33"/>
<text text-anchor="middle" x="35.62" y="-1811.45" font-family="Times New Roman,serif" font-size="14.00">9.0</text>
</g>
<!-- 41 -->
<g id="node41" class="node">
<title>41</title>
<ellipse fill="none" stroke="black" cx="27" cy="-1685.25" rx="27" ry="18"/>
<text text-anchor="middle" x="27" y="-1679.83" font-family="Times New Roman,serif" font-size="14.00">41</text>
</g>
<!-- 40&#45;&gt;41 -->
<g id="edge40" class="edge">
<title>40&#45;&gt;41</title>
<path fill="none" stroke="black" d="M27,-1754.65C27,-1743.14 27,-1727.78 27,-1714.53"/>
<polygon fill="black" stroke="black" points="30.5,-1714.58 27,-1704.58 23.5,-1714.58 30.5,-1714.58"/>
<text text-anchor="middle" x="35.62" y="-1723.7" font-family="Times New Roman,serif" font-size="14.00">1.0</text>
</g>
<!-- 42 -->
<g id="node42" class="node">
<title>42</title>
<ellipse fill="none" stroke="black" cx="27" cy="-1597.5" rx="27" ry="18"/>
<text text-anchor="middle" x="27" y="-1592.08" font-family="Times New Roman,serif" font-size="14.00">42</text>
</g>
<!-- 41&#45;&gt;42 -->
<g id="edge41" class="edge">
<title>41&#45;&gt;42</title>
<path fill="none" stroke="black" d="M27,-1666.9C27,-1655.39 27,-1640.03 27,-1626.78"/>
<polygon fill="black" stroke="black" points="30.5,-1626.83 27,-1616.83 23.5,-1626.83 30.5,-1626.83"/>
<text text-anchor="middle" x="35.62" y="-1635.95" font-family="Times New Roman,serif" font-size="14.00">6.0</text>
</g>
<!-- 43 -->
<g id="node43" class="node">
<title>43</title>
<ellipse fill="none" stroke="black" cx="27" cy="-1509.75" rx="27" ry="18"/>
<text text-anchor="middle" x="27" y="-1504.33" font-family="Times New Roman,serif" font-size="14.00">43</text>
</g>
<!-- 42&#45;&gt;43 -->
<g id="edge42" class="edge">
<title>42&#45;&gt;43</title>
<path fill="none" stroke="black" d="M27,-1579.15C27,-1567.64 27,-1552.28 27,-1539.03"/>
<polygon fill="black" stroke="black" points="30.5,-1539.08 27,-1529.08 23.5,-1539.08 30.5,-1539.08"/>
<text text-anchor="middle" x="35.62" y="-1548.2" font-family="Times New Roman,serif" font-size="14.00">3.0</text>
</g>
<!-- 44 -->
<g id="node44" class="node">
<title>44</title>
<ellipse fill="none" stroke="black" cx="27" cy="-1422" rx="27" ry="18"/>
<text text-anchor="middle" x="27" y="-1416.58" font-family="Times New Roman,serif" font-size="14.00">44</text>
</g>
<!-- 43&#45;&gt;44 -->
<g id="edge43" class="edge">
<title>43&#45;&gt;44</title>
<path fill="none" stroke="black" d="M27,-1491.4C27,-1479.89 27,-1464.53 27,-1451.28"/>
<polygon fill="black" stroke="black" points="30.5,-1451.33 27,-1441.33 23.5,-1451.33 30.5,-1451.33"/>
<text text-anchor="middle" x="35.62" y="-1460.45" font-family="Times New Roman,serif" font-size="14.00">8.0</text>
</g>
<!-- 45 -->
<g id="node45" class="node">
<title>45</title>
<ellipse fill="none" stroke="black" cx="27" cy="-1334.25" rx="27" ry="18"/>
<text text-anchor="middle" x="27" y="-1328.83" font-family="Times New Roman,serif" font-size="14.00">45</text>
</g>
<!-- 44&#45;&gt;45 -->
<g id="edge44" class="edge">
<title>44&#45;&gt;45</title>
<path fill="none" stroke="black" d="M27,-1403.65C27,-1392.14 27,-1376.78 27,-1363.53"/>
<polygon fill="black" stroke="black" points="30.5,-1363.58 27,-1353.58 23.5,-1363.58 30.5,-1363.58"/>
<text text-anchor="middle" x="35.62" y="-1372.7" font-family="Times New Roman,serif" font-size="14.00">7.0</text>
</g>
<!-- 46 -->
<g id="node46" class="node">
<title>46</title>
<ellipse fill="none" stroke="black" cx="27" cy="-1246.5" rx="27" ry="18"/>
<text text-anchor="middle" x="27" y="-1241.08" font-family="Times New Roman,serif" font-size="14.00">46</text>
</g>
<!-- 45&#45;&gt;46 -->
<g id="edge45" class="edge">
<title>45&#45;&gt;46</title>
<path fill="none" stroke="black" d="M27,-1315.9C27,-1304.39 27,-1289.03 27,-1275.78"/>
<polygon fill="black" stroke="black" points="30.5,-1275.83 27,-1265.83 23.5,-1275.83 30.5,-1275.83"/>
<text text-anchor="middle" x="35.62" y="-1284.95" font-family="Times New Roman,serif" font-size="14.00">2.0</text>
</g>
<!-- 47 -->
<g id="node47" class="node">
<title>47</title>
<ellipse fill="none" stroke="black" cx="27" cy="-1158.75" rx="27" ry="18"/>
<text text-anchor="middle" x="27" y="-1153.33" font-family="Times New Roman,serif" font-size="14.00">47</text>
</g>
<!-- 46&#45;&gt;47 -->
<g id="edge46" class="edge">
<title>46&#45;&gt;47</title>
<path fill="none" stroke="black" d="M27,-1228.15C27,-1216.64 27,-1201.28 27,-1188.03"/>
<polygon fill="black" stroke="black" points="30.5,-1188.08 27,-1178.08 23.5,-1188.08 30.5,-1188.08"/>
<text text-anchor="middle" x="35.62" y="-1197.2" font-family="Times New Roman,serif" font-size="14.00">9.0</text>
</g>
<!-- 48 -->
<g id="node48" class="node">
<title>48</title>
<ellipse fill="none" stroke="black" cx="27" cy="-1071" rx="27" ry="18"/>
<text text-anchor="middle" x="27" y="-1065.58" font-family="Times New Roman,serif" font-size="14.00">48</text>
</g>
<!-- 47&#45;&gt;48 -->
<g id="edge47" class="edge">
<title>47&#45;&gt;48</title>
<path fill="none" stroke="black" d="M27,-1140.4C27,-1128.89 27,-1113.53 27,-1100.28"/>
<polygon fill="black" stroke="black" points="30.5,-1100.33 27,-1090.33 23.5,-1100.33 30.5,-1100.33"/>
<text text-anchor="middle" x="35.62" y="-1109.45" font-family="Times New Roman,serif" font-size="14.00">4.0</text>
</g>
<!-- 49 -->
<g id="node49" class="node">
<title>49</title>
<ellipse fill="none" stroke="black" cx="27" cy="-983.25" rx="27" ry="18"/>
<text text-anchor="middle" x="27" y="-977.83" font-family="Times New Roman,serif" font-size="14.00">49</text>
</g>
<!-- 48&#45;&gt;49 -->
<g id="edge48" class="edge">
<title>48&#45;&gt;49</title>
<path fill="none" stroke="black" d="M27,-1052.65C27,-1041.14 27,-1025.78 27,-1012.53"/>
<polygon fill="black" stroke="black" points="30.5,-1012.58 27,-1002.58 23.5,-1012.58 30.5,-1012.58"/>
<text text-anchor="middle" x="35.62" y="-1021.7" font-family="Times New Roman,serif" font-size="14.00">1.0</text>
</g>
<!-- 50 -->
<g id="node50" class="node">
<title>50</title>
<ellipse fill="none" stroke="black" cx="27" cy="-895.5" rx="27" ry="18"/>
<text text-anchor="middle" x="27" y="-890.08" font-family="Times New Roman,serif" font-size="14.00">50</text>
</g>
<!-- 49&#45;&gt;50 -->
<g id="edge49" class="edge">
<title>49&#45;&gt;50</title>
<path fill="none" stroke="black" d="M27,-964.9C27,-953.39 27,-938.03 27,-924.78"/>
<polygon fill="black" stroke="black" points="30.5,-924.83 27,-914.83 23.5,-924.83 30.5,-924.83"/>
<text text-anchor="middle" x="35.62" y="-933.95" font-family="Times New Roman,serif" font-size="14.00">6.0</text>
</g>
<!-- 51 -->
<g id="node51" class="node">
<title>51</title>
<ellipse fill="none" stroke="black" cx="27" cy="-807.75" rx="27" ry="18"/>
<text text-anchor="middle" x="27" y="-802.33" font-family="Times New Roman,serif" font-size="14.00">51</text>
</g>
<!-- 50&#45;&gt;51 -->
<g id="edge50" class="edge">
<title>50&#45;&gt;51</title>
<path fill="none" stroke="black" d="M27,-877.15C27,-865.64 27,-850.28 27,-837.03"/>
<polygon fill="black" stroke="black" points="30.5,-837.08 27,-827.08 23.5,-837.08 30.5,-837.08"/>
<text text-anchor="middle" x="35.62" y="-846.2" font-family="Times New Roman,serif" font-size="14.00">2.0</text>
</g>
<!-- 52 -->
<g id="node52" class="node">
<title>52</title>
<ellipse fill="none" stroke="black" cx="27" cy="-720" rx="27" ry="18"/>
<text text-anchor="middle" x="27" y="-714.58" font-family="Times New Roman,serif" font-size="14.00">52</text>
</g>
<!-- 51&#45;&gt;52 -->
<g id="edge51" class="edge">
<title>51&#45;&gt;52</title>
<path fill="none" stroke="black" d="M27,-789.4C27,-777.89 27,-762.53 27,-749.28"/>
<polygon fill="black" stroke="black" points="30.5,-749.33 27,-739.33 23.5,-749.33 30.5,-749.33"/>
<text text-anchor="middle" x="35.62" y="-758.45" font-family="Times New Roman,serif" font-size="14.00">3.0</text>
</g>
<!-- 53 -->
<g id="node53" class="node">
<title>53</title>
<ellipse fill="none" stroke="black" cx="27" cy="-632.25" rx="27" ry="18"/>
<text text-anchor="middle" x="27" y="-626.83" font-family="Times New Roman,serif" font-size="14.00">53</text>
</g>
<!-- 52&#45;&gt;53 -->
<g id="edge52" class="edge">
<title>52&#45;&gt;53</title>
<path fill="none" stroke="black" d="M27,-701.65C27,-690.14 27,-674.78 27,-661.53"/>
<polygon fill="black" stroke="black" points="30.5,-661.58 27,-651.58 23.5,-661.58 30.5,-661.58"/>
<text text-anchor="middle" x="35.62" y="-670.7" font-family="Times New Roman,serif" font-size="14.00">7.0</text>
</g>
<!-- 54 -->
<g id="node54" class="node">
<title>54</title>
<ellipse fill="none" stroke="black" cx="27" cy="-544.5" rx="27" ry="18"/>
<text text-anchor="middle" x="27" y="-539.08" font-family="Times New Roman,serif" font-size="14.00">54</text>
</g>
<!-- 53&#45;&gt;54 -->
<g id="edge53" class="edge">
<title>53&#45;&gt;54</title>
<path fill="none" stroke="black" d="M27,-613.9C27,-602.39 27,-587.03 27,-573.78"/>
<polygon fill="black" stroke="black" points="30.5,-573.83 27,-563.83 23.5,-573.83 30.5,-573.83"/>
<text text-anchor="middle" x="35.62" y="-582.95" font-family="Times New Roman,serif" font-size="14.00">4.0</text>
</g>
<!-- 55 -->
<g id="node55" class="node">
<title>55</title>
<ellipse fill="none" stroke="black" cx="27" cy="-456.75" rx="27" ry="18"/>
<text text-anchor="middle" x="27" y="-451.32" font-family="Times New Roman,serif" font-size="14.00">55</text>
</g>
<!-- 54&#45;&gt;55 -->
<g id="edge54" class="edge">
<title>54&#45;&gt;55</title>
<path fill="none" stroke="black" d="M27,-526.15C27,-514.64 27,-499.28 27,-486.03"/>
<polygon fill="black" stroke="black" points="30.5,-486.08 27,-476.08 23.5,-486.08 30.5,-486.08"/>
<text text-anchor="middle" x="35.62" y="-495.2" font-family="Times New Roman,serif" font-size="14.00">8.0</text>
</g>
<!-- 56 -->
<g id="node56" class="node">
<title>56</title>
<ellipse fill="none" stroke="black" cx="27" cy="-369" rx="27" ry="18"/>
<text text-anchor="middle" x="27" y="-363.57" font-family="Times New Roman,serif" font-size="14.00">56</text>
</g>
<!-- 55&#45;&gt;56 -->
<g id="edge55" class="edge">
<title>55&#45;&gt;56</title>
<path fill="none" stroke="black" d="M27,-438.4C27,-426.89 27,-411.53 27,-398.28"/>
<polygon fill="black" stroke="black" points="30.5,-398.33 27,-388.33 23.5,-398.33 30.5,-398.33"/>
<text text-anchor="middle" x="35.62" y="-407.45" font-family="Times New Roman,serif" font-size="14.00">1.0</text>
</g>
<!-- 57 -->
<g id="node57" class="node">
<title>57</title>
<ellipse fill="none" stroke="black" cx="27" cy="-281.25" rx="27" ry="18"/>
<text text-anchor="middle" x="27" y="-275.82" font-family="Times New Roman,serif" font-size="14.00">57</text>
</g>
<!-- 56&#45;&gt;57 -->
<g id="edge56" class="edge">
<title>56&#45;&gt;57</title>
<path fill="none" stroke="black" d="M27,-350.65C27,-339.14 27,-323.78 27,-310.53"/>
<polygon fill="black" stroke="black" points="30.5,-310.58 27,-300.58 23.5,-310.58 30.5,-310.58"/>
<text text-anchor="middle" x="35.62" y="-319.7" font-family="Times New Roman,serif" font-size="14.00">9.0</text>
</g>
<!-- 58 -->
<g id="node58" class="node">
<title>58</title>
<ellipse fill="none" stroke="black" cx="27" cy="-193.5" rx="27" ry="18"/>
<text text-anchor="middle" x="27" y="-188.07" font-family="Times New Roman,serif" font-size="14.00">58</text>
</g>
<!-- 57&#45;&gt;58 -->
<g id="edge57" class="edge">
<title>57&#45;&gt;58</title>
<path fill="none" stroke="black" d="M27,-262.9C27,-251.39 27,-236.03 27,-222.78"/>
<polygon fill="black" stroke="black" points="30.5,-222.83 27,-212.83 23.5,-222.83 30.5,-222.83"/>
<text text-anchor="middle" x="35.62" y="-231.95" font-family="Times New Roman,serif" font-size="14.00">5.0</text>
</g>
<!-- 59 -->
<g id="node59" class="node">
<title>59</title>
<ellipse fill="none" stroke="black" cx="27" cy="-105.75" rx="27" ry="18"/>
<text text-anchor="middle" x="27" y="-100.33" font-family="Times New Roman,serif" font-size="14.00">59</text>
</g>
<!-- 58&#45;&gt;59 -->
<g id="edge58" class="edge">
<title>58&#45;&gt;59</title>
<path fill="none" stroke="black" d="M27,-175.15C27,-163.64 27,-148.28 27,-135.03"/>
<polygon fill="black" stroke="black" points="30.5,-135.08 27,-125.08 23.5,-135.08 30.5,-135.08"/>
<text text-anchor="middle" x="35.62" y="-144.2" font-family="Times New Roman,serif" font-size="14.00">2.0</text>
</g>
<!-- 60 -->
<g id="node60" class="node">
<title>60</title>
<ellipse fill="none" stroke="black" cx="27" cy="-18" rx="27" ry="18"/>
<text text-anchor="middle" x="27" y="-12.57" font-family="Times New Roman,serif" font-size="14.00">60</text>
</g>
<!-- 59&#45;&gt;60 -->
<g id="edge59" class="edge">
<title>59&#45;&gt;60</title>
<path fill="none" stroke="black" d="M27,-87.4C27,-75.89 27,-60.53 27,-47.28"/>
<polygon fill="black" stroke="black" points="30.5,-47.33 27,-37.33 23.5,-47.33 30.5,-47.33"/>
<text text-anchor="middle" x="35.62" y="-56.45" font-family="Times New Roman,serif" font-size="14.00">6.0</text>
</g>
</g>
</svg>
